<svg width="28" height="28" viewBox="0 0 28 28" fill="none" xmlns="http://www.w3.org/2000/svg">
<path d="M25.6048 10.7088C25.5315 10.4929 25.3965 10.3031 25.2165 10.1629C25.0366 10.0228 24.8195 9.93838 24.5921 9.92018L17.941 9.39168L15.0628 3.02052C14.9711 2.81531 14.822 2.64103 14.6335 2.51868C14.445 2.39634 14.2251 2.33118 14.0003 2.33105C13.7756 2.33093 13.5556 2.39585 13.3669 2.51799C13.1783 2.64012 13.029 2.81425 12.9371 3.01935L10.0589 9.39168L3.40778 9.92018C3.18431 9.93789 2.97068 10.0196 2.79243 10.1555C2.61418 10.2915 2.47887 10.4759 2.40269 10.6867C2.32651 10.8975 2.31268 11.1259 2.36285 11.3443C2.41303 11.5628 2.52508 11.7622 2.68562 11.9187L7.60078 16.7102L5.86245 24.2375C5.80967 24.4654 5.82658 24.7038 5.91101 24.9219C5.99543 25.14 6.14346 25.3278 6.33589 25.4607C6.52831 25.5936 6.75626 25.6657 6.99013 25.6674C7.22401 25.6692 7.45302 25.6007 7.64745 25.4707L14 21.2357L20.3525 25.4707C20.5512 25.6026 20.7855 25.6706 21.024 25.6653C21.2625 25.6601 21.4937 25.582 21.6864 25.4414C21.8792 25.3009 22.0243 25.1047 22.1022 24.8793C22.1801 24.6538 22.1871 24.4099 22.1223 24.1803L19.9885 16.7137L25.2805 11.9514C25.627 11.6387 25.7541 11.151 25.6048 10.7088Z" fill="#F59E0B"/>
</svg>
